<svg width="41" height="41" viewBox="0 0 41 41" fill="none" xmlns="http://www.w3.org/2000/svg">
<g clip-path="url(#clip0_357_11988)">
<g clip-path="url(#clip1_357_11988)">
<path d="M27.5874 35.5056L28.9496 35.2986L28.7132 33.9399L27.9249 29.4115L32.1323 31.2556L33.435 31.825L33.9368 30.4962L37.1165 22.084L37.6062 20.7898L36.2987 20.333L31.9688 18.8207L35.6594 15.9695L36.7487 15.1286L35.8875 14.056L30.3887 7.20559L29.5243 6.12984L28.4683 7.01673L24.9174 9.99598L24.367 5.3377L24.2029 3.95163L12.7282 5.69521L12.984 7.06735L13.8237 11.5752L9.5542 9.74144L8.26369 9.18651L7.76202 10.4981L4.56849 18.8249L4.07749 20.1048L5.36432 20.5756L9.77931 22.1924L6.0499 24.9257L4.91707 25.756L5.7915 26.8557L11.3018 33.7817L12.1614 34.8618L13.2225 33.9787L16.7351 31.0526L17.329 35.6679L17.5052 37.0376L27.5874 35.5056Z" fill="#FF8F27" stroke="#051A2F" stroke-width="2.7"/>
</g>
</g>
<defs>
<clipPath id="clip0_357_11988">
<rect width="36" height="36" fill="white" transform="translate(41 35.5913) rotate(171.36)"/>
</clipPath>
<clipPath id="clip1_357_11988">
<rect width="37.8" height="36" fill="white" transform="translate(41.8906 35.4561) rotate(171.36)"/>
</clipPath>
</defs>
</svg>
