<svg width="36" height="36" viewBox="0 0 36 36" fill="none" xmlns="http://www.w3.org/2000/svg">
<g clip-path="url(#clip0_357_11996)">
<g clip-path="url(#clip1_357_11996)">
<path d="M28.459 11.8156H24.4732V7.78819C24.4732 6.16911 23.8363 4.61465 22.6963 3.46819C22.1333 2.89989 21.4634 2.44877 20.7251 2.14087C19.9868 1.83297 19.1948 1.6744 18.3949 1.67432C17.595 1.67423 16.803 1.83263 16.0647 2.14037C15.3263 2.44811 14.6562 2.89909 14.0932 3.46726C12.9543 4.61654 12.3156 6.16926 12.3163 7.78726V11.8156H8.33134C6.71595 11.8156 5.16795 12.4617 4.02888 13.61C2.88998 14.7593 2.25131 16.312 2.25195 17.93C2.25195 19.5491 2.8898 21.1036 4.02888 22.251C4.59187 22.8193 5.26184 23.2706 6.00012 23.5788C6.73841 23.8869 7.5304 24.0458 8.33042 24.0463H12.3163V28.0737C12.3163 29.6919 12.9532 31.2463 14.0932 32.3937C14.6562 32.962 15.3262 33.413 16.0645 33.7208C16.8028 34.0286 17.5948 34.1871 18.3947 34.1871C19.1946 34.1871 19.9866 34.0286 20.7249 33.7208C21.4632 33.413 22.1333 32.962 22.6963 32.3937C23.8352 31.2444 24.4738 29.6917 24.4732 28.0737V24.0463H28.4581C30.0735 24.0463 31.6215 23.3993 32.7596 22.251C33.8985 21.1016 34.5371 19.5489 34.5366 17.931C34.5374 16.3131 33.899 14.7604 32.7606 13.611C32.1976 13.0426 31.5276 12.5913 30.7893 12.2831C30.051 11.975 29.259 11.8161 28.459 11.8156Z" fill="#C8DDF1"/>
<path d="M4.02888 13.61C5.16795 12.4617 6.71595 11.8156 8.33134 11.8156H12.3163V7.78726C12.3156 6.16926 12.9543 4.61654 14.0932 3.46726C14.6563 2.89909 15.3263 2.44811 16.0647 2.14037C16.803 1.83263 17.595 1.67423 18.3949 1.67432C19.1948 1.6744 19.9868 1.83297 20.7251 2.14087C21.4634 2.44877 22.1333 2.89989 22.6963 3.46819C23.8363 4.61465 24.4732 6.16911 24.4732 7.78819V11.8156H28.459C29.259 11.8161 30.051 11.975 30.7893 12.2831C31.5276 12.5913 32.1976 13.0426 32.7606 13.611C33.899 14.7604 34.5374 16.3131 34.5366 17.931C34.5371 19.5489 33.8985 21.1016 32.7596 22.251C31.6215 23.3993 30.0735 24.0463 28.4581 24.0463H24.4732V28.0737C24.4738 29.6917 23.8352 31.2444 22.6963 32.3937C22.1333 32.962 21.4632 33.413 20.7249 33.7208C19.9866 34.0286 19.1946 34.1871 18.3947 34.1871C17.5948 34.1871 16.8028 34.0286 16.0645 33.7208C15.3262 33.413 14.6562 32.962 14.0932 32.3937C12.9532 31.2463 12.3163 29.6919 12.3163 28.0737V24.0463H8.33042C7.5304 24.0458 6.73841 23.8869 6.00012 23.5788C5.26184 23.2706 4.59187 22.8193 4.02888 22.251C2.8898 21.1036 2.25195 19.5491 2.25195 17.93C2.25131 16.312 2.88998 14.7593 4.02888 13.61ZM4.02888 13.61L5.01195 14.5857" stroke="#051A2F" stroke-width="2.76923"/>
</g>
</g>
<defs>
<clipPath id="clip0_357_11996">
<rect width="36" height="36" fill="white"/>
</clipPath>
<clipPath id="clip1_357_11996">
<rect width="36" height="36" fill="white"/>
</clipPath>
</defs>
</svg>
