<svg width="306" height="302" viewBox="0 0 306 302" fill="none" xmlns="http://www.w3.org/2000/svg">
<g opacity="0.5">
<path d="M19.3689 143.447L191.346 44.6353L19.3689 143.447Z" fill="black"/>
<path d="M19.3689 143.447L191.346 44.6353" stroke="#E5E5E5" stroke-width="31.0149" stroke-linecap="round"/>
</g>
<g opacity="0.5">
<path d="M60.2739 208.255L232.251 109.444L60.2739 208.255Z" fill="black"/>
<path d="M60.2739 208.255L232.251 109.444" stroke="#E5E5E5" stroke-width="31.0149" stroke-linecap="round"/>
</g>
<g opacity="0.5">
<path d="M276.305 84.6135L289.708 76.811L276.305 84.6135Z" fill="black"/>
<path d="M276.305 84.6135L289.708 76.811" stroke="#E5E5E5" stroke-width="31.0149" stroke-linecap="round"/>
</g>
<g opacity="0.5">
<path d="M120.948 261.572L251.557 185.284L120.948 261.572Z" fill="black"/>
<path d="M120.948 261.572L251.557 185.284" stroke="#E5E5E5" stroke-width="31.0149" stroke-linecap="round"/>
</g>
<path d="M284.612 189.112C286.709 189.273 288.28 191.107 288.119 193.204C287.958 195.3 286.125 196.872 284.028 196.711C281.931 196.55 280.359 194.716 280.52 192.619C280.681 190.522 282.515 188.951 284.612 189.112Z" stroke="#322D4E" stroke-width="1.44385"/>
<path d="M64.543 272.885C67.9913 273.15 70.5759 276.165 70.3108 279.613C70.0457 283.062 67.0307 285.646 63.5824 285.381C60.1341 285.116 57.5495 282.101 57.8146 278.653C58.0797 275.205 61.0947 272.62 64.543 272.885Z" stroke="#322D4E" stroke-width="2.3743"/>
<path d="M145.185 13.6717C148.634 13.9368 151.218 16.9518 150.953 20.4001C150.688 23.8484 147.673 26.433 144.225 26.1679C140.776 25.9028 138.192 22.8878 138.457 19.4395C138.722 15.9912 141.737 13.4066 145.185 13.6717Z" stroke="#322D4E" stroke-width="2.3743"/>
<path d="M3.86286 95.0723C5.44287 95.0723 6.72572 96.3551 6.72572 97.9351C6.72572 99.5151 5.44287 100.798 3.86286 100.798C2.28285 100.798 1 99.5151 1 97.9351C1 96.3551 2.28285 95.0723 3.86286 95.0723Z" stroke="#322D4E" stroke-width="1.73552"/>
<path d="M226.218 281.764C227.798 281.764 229.081 283.047 229.081 284.627C229.081 286.207 227.798 287.49 226.218 287.49C224.638 287.49 223.355 286.207 223.355 284.627C223.355 283.047 224.638 281.764 226.218 281.764Z" stroke="#F5BE3A" stroke-width="1.73552"/>
<path d="M261.169 12.7842L259.838 1.37062" stroke="#F5BE3A" stroke-width="1.0112"/>
<path d="M254.995 7.74219L266.409 6.41127" stroke="#F5BE3A" stroke-width="1.0112"/>
<path d="M17.8645 200.274L15.9265 188.948" stroke="#F5BE3A" stroke-width="1.0112"/>
<path d="M11.4313 195.569L22.7576 193.631" stroke="#F5BE3A" stroke-width="1.0112"/>
<path d="M256.934 249.804L253.959 238.705" stroke="#F5BE3A" stroke-width="1.0112"/>
<path d="M250.09 245.712L261.189 242.738" stroke="#F5BE3A" stroke-width="1.0112"/>
<path d="M151.129 61.8633C196.633 61.8633 233.578 98.8089 233.578 144.313C233.578 189.816 196.633 226.762 151.129 226.762C105.626 226.762 68.68 189.816 68.68 144.313C68.68 98.8089 105.626 61.8633 151.129 61.8633Z" fill="#013930" stroke="#F1C34E" stroke-width="0.34092"/>
<path d="M151.08 69.5083C192.365 69.5083 225.885 103.029 225.885 144.314C225.885 185.599 192.365 219.12 151.08 219.12C109.794 219.12 76.274 185.599 76.274 144.314C76.274 103.029 109.794 69.5083 151.08 69.5083Z" fill="#013930"/>
<path d="M151.08 69.5083C192.365 69.5083 225.885 103.029 225.885 144.314C225.885 185.599 192.365 219.12 151.08 219.12C109.794 219.12 76.274 185.599 76.274 144.314C76.274 103.029 109.794 69.5083 151.08 69.5083Z" fill="#013930"/>
<path d="M117.299 147.056L137.523 166.82C137.523 166.82 183.773 120.57 184.846 119.497" stroke="white" stroke-width="6.06721"/>
</svg>
