<svg width="234" height="234" viewBox="0 0 234 234" fill="none" xmlns="http://www.w3.org/2000/svg">
<g clip-path="url(#clip0_289_5438)">
<path fill-rule="evenodd" clip-rule="evenodd" d="M180.954 108.701L190.976 147.425C192.57 153.587 191.652 160.13 188.422 165.615C185.193 171.1 179.916 175.078 173.754 176.673L142.775 184.69L126.74 122.731L180.954 108.701ZM111.25 126.74L127.285 188.699L96.3059 196.716C90.1437 198.311 83.6004 197.393 78.1154 194.163C72.6304 190.933 68.653 185.657 67.0582 179.495L57.0363 140.771L111.25 126.74ZM73.7123 45.5557C78.1073 44.4181 82.6941 44.2285 87.1679 44.9998C91.6418 45.7711 95.9004 47.4855 99.6607 50.0291C101.715 45.9806 104.607 42.4156 108.145 39.5708C111.683 36.7261 115.786 34.6667 120.181 33.5295L124.054 32.5273C127.135 31.7299 130.406 32.1891 133.149 33.8039C135.891 35.4187 137.88 38.0569 138.678 41.138L139.68 45.0104C141.141 50.6564 141 56.3369 139.545 61.5724L159.178 56.4913C163.286 55.4281 167.648 56.0404 171.305 58.1935C174.962 60.3466 177.613 63.8641 178.677 67.9722L182.685 83.4619C183.415 86.281 183.349 89.1241 182.614 91.7439L122.731 107.242L116.718 84.0072C116.186 81.9532 114.861 80.1944 113.032 79.1179C111.204 78.0413 109.023 77.7352 106.969 78.2668C104.915 78.7984 103.156 80.1242 102.079 81.9525C101.003 83.7808 100.697 85.9619 101.228 88.016L107.241 111.25L47.3583 126.748C45.3893 124.746 43.9821 122.26 43.2783 119.541L39.2696 104.051C38.2064 99.9429 38.8187 95.5807 40.9718 91.924C43.1249 88.2674 46.6424 85.6158 50.7505 84.5526L70.3836 79.4715C66.4481 75.4644 63.6365 70.4921 62.2314 65.0542L61.2292 61.1818C60.4318 58.1007 60.891 54.829 62.5058 52.0865C64.1207 49.344 66.7588 47.3553 69.8399 46.5579L73.7123 45.5557ZM77.7211 61.0454C78.7842 65.1535 81.4358 68.671 85.0925 70.8241C88.7492 72.9772 93.1114 73.5895 97.2195 72.5263C96.1563 68.4182 93.5047 64.9007 89.848 62.7476C86.1914 60.5945 81.8292 59.9822 77.7211 61.0454ZM124.19 49.0191C120.082 50.0823 116.564 52.7339 114.411 56.3906C112.258 60.0472 111.646 64.4094 112.709 68.5176C116.817 67.4544 120.335 64.8028 122.488 61.1461C124.641 57.4895 125.253 53.1272 124.19 49.0191Z" fill="#F5F5DC"/>
</g>
<defs>
<clipPath id="clip0_289_5438">
<rect width="192" height="192" fill="white" transform="translate(0 48.1055) rotate(-14.5099)"/>
</clipPath>
</defs>
</svg>
