<svg width="161" height="132" viewBox="0 0 161 132" fill="none" xmlns="http://www.w3.org/2000/svg">
<path d="M77.8708 130.34C110.48 130.34 136.915 103.751 136.915 70.9531C136.915 38.1547 110.48 11.5664 77.8708 11.5664C45.2615 11.5664 18.8264 38.1547 18.8264 70.9531C18.8264 103.751 45.2615 130.34 77.8708 130.34Z" fill="#F1F3F9" stroke="#D6DCE8" stroke-width="2" stroke-miterlimit="10"/>
<path d="M22.8652 40.3623V48.0097V108.95C22.8652 111.698 25.1225 113.968 27.8549 113.968H126.104C128.836 113.968 131.093 111.698 131.093 108.95V48.0097V40.6013C131.093 37.6141 128.717 35.3438 125.866 35.3438H27.8549L22.8652 40.3623Z" fill="white" stroke="#D6DCE8" stroke-width="2" stroke-miterlimit="10"/>
<path d="M98.8982 45.6199H22.8652V40.3623C22.8652 37.6141 25.1225 35.3438 27.8549 35.3438H126.104C128.836 35.3438 131.093 37.6141 131.093 40.3623V45.6199H114.342H98.8982Z" fill="white" stroke="#D6DCE8" stroke-width="2" stroke-miterlimit="10"/>
<path d="M29.2807 42.3926C30.1992 42.3926 30.9439 41.6436 30.9439 40.7197C30.9439 39.7958 30.1992 39.0469 29.2807 39.0469C28.3621 39.0469 27.6174 39.7958 27.6174 40.7197C27.6174 41.6436 28.3621 42.3926 29.2807 42.3926Z" fill="#D6DCE8"/>
<path d="M34.0326 42.3926C34.9512 42.3926 35.6958 41.6436 35.6958 40.7197C35.6958 39.7958 34.9512 39.0469 34.0326 39.0469C33.114 39.0469 32.3694 39.7958 32.3694 40.7197C32.3694 41.6436 33.114 42.3926 34.0326 42.3926Z" fill="#D6DCE8"/>
<path d="M38.9037 42.3926C39.8223 42.3926 40.5669 41.6436 40.5669 40.7197C40.5669 39.7958 39.8223 39.0469 38.9037 39.0469C37.9851 39.0469 37.2405 39.7958 37.2405 40.7197C37.2405 41.6436 37.9851 42.3926 38.9037 42.3926Z" fill="#D6DCE8"/>
<path d="M72.4053 75.1357L53.0406 75.0162C52.209 75.0162 51.615 74.2993 51.615 73.5823C51.615 72.7459 52.3278 72.1484 53.0406 72.1484L72.4053 72.2679C73.2369 72.2679 73.8309 72.9849 73.8309 73.7018C73.8309 74.4188 73.2369 75.1357 72.4053 75.1357Z" fill="#D6DCE8"/>
<path d="M118.382 75.1357L96.047 75.0162C95.2153 75.0162 94.6213 74.2993 94.6213 73.5823C94.6213 72.7459 95.3341 72.1484 96.047 72.1484L118.263 72.2679C119.094 72.2679 119.688 72.9849 119.688 73.7018C119.807 74.4188 119.213 75.1357 118.382 75.1357Z" fill="#EAECF3"/>
<path d="M103.531 103.214L81.1966 103.094C80.365 103.094 79.771 102.377 79.771 101.66C79.771 100.824 80.4838 100.227 81.1966 100.227L103.531 100.346C104.363 100.346 104.957 101.063 104.957 101.78C104.957 102.616 104.244 103.214 103.531 103.214Z" fill="#D6DCE8"/>
<path d="M89.7502 75.0146L78.9393 74.8951C78.1077 74.8951 77.5137 74.1782 77.5137 73.4612C77.5137 72.6248 78.2265 72.0273 78.9393 72.0273L89.7502 72.1468C90.5818 72.1468 91.1758 72.8638 91.1758 73.5807C91.2946 74.4171 90.5818 75.0146 89.7502 75.0146Z" fill="#AAB2C5"/>
<path d="M45.3187 74.8951H37.359C36.5274 74.8951 35.9333 74.1782 35.9333 73.4612C35.9333 72.6248 36.5274 72.0273 37.359 72.0273H45.3187C46.1503 72.0273 46.7443 72.7443 46.7443 73.4612C46.7443 74.2977 46.1503 74.8951 45.3187 74.8951Z" fill="#AAB2C5"/>
<path d="M76.2071 84.456L64.5645 84.3365C63.7329 84.3365 63.1389 83.6196 63.1389 82.9026C63.1389 82.0662 63.8517 81.4688 64.5645 81.4688L76.2071 81.5882C77.0387 81.5882 77.6327 82.3052 77.6327 83.0221C77.7515 83.7391 77.0387 84.456 76.2071 84.456Z" fill="#D6DCE8"/>
<path d="M112.323 84.695L82.741 84.3365C81.9094 84.3365 81.3154 83.6196 81.3154 82.9026C81.3154 82.0662 82.0282 81.4688 82.741 81.4688L112.323 81.8272C113.154 81.8272 113.748 82.5442 113.748 83.2611C113.748 83.978 113.035 84.695 112.323 84.695Z" fill="#D6DCE8"/>
<path d="M56.8424 84.3365H37.359C36.5274 84.3365 35.9333 83.6196 35.9333 82.9026C35.9333 82.0662 36.6462 81.4688 37.359 81.4688H56.8424C57.674 81.4688 58.268 82.1857 58.268 82.9026C58.268 83.6196 57.674 84.3365 56.8424 84.3365Z" fill="#EAECF3"/>
<path d="M91.5325 93.7763L64.5645 93.6568C63.7329 93.6568 63.1389 92.9399 63.1389 92.2229C63.1389 91.3865 63.8517 90.7891 64.5645 90.7891L91.6513 90.9086C92.4829 90.9086 93.0769 91.6255 93.0769 92.3424C93.0769 93.1789 92.3641 93.7763 91.5325 93.7763Z" fill="#AAB2C5"/>
<path d="M56.8424 93.6568H37.359C36.5274 93.6568 35.9333 92.9399 35.9333 92.2229C35.9333 91.3865 36.6462 90.7891 37.359 90.7891H56.8424C57.674 90.7891 58.268 91.506 58.268 92.2229C58.268 92.9399 57.674 93.6568 56.8424 93.6568Z" fill="#D6DCE8"/>
<path d="M73.7123 103.097L58.8621 102.977C58.0305 102.977 57.4365 102.26 57.4365 101.543C57.4365 100.707 58.1493 100.109 58.8621 100.109L73.7123 100.229C74.5439 100.229 75.1379 100.946 75.1379 101.663C75.1379 102.499 74.5439 103.097 73.7123 103.097Z" fill="#EAECF3"/>
<path d="M49.3579 102.977H37.359C36.5274 102.977 35.9333 102.26 35.9333 101.543C35.9333 100.707 36.6462 100.109 37.359 100.109H49.3579C50.1895 100.109 50.7835 100.826 50.7835 101.543C50.9023 102.38 50.1895 102.977 49.3579 102.977Z" fill="#AAB2C5"/>
<path d="M92.0082 60.6771L37.3595 60.4381C36.5278 60.4381 35.9338 59.7211 35.9338 59.0042C35.9338 58.1678 36.6466 57.5703 37.3595 57.5703L92.0082 57.8093C92.8398 57.8093 93.4338 58.5262 93.4338 59.2432C93.4338 60.0796 92.8398 60.6771 92.0082 60.6771Z" fill="#AAB2C5"/>
<path d="M3.20764 54.3686C3.44524 54.6076 3.56405 54.8466 3.56405 55.205C2.37603 58.6702 2.01963 58.7897 3.56405 59.3872C3.68285 59.3872 3.80165 59.6262 3.68285 59.7457C3.32644 60.7016 3.20764 61.4185 2.85123 61.299C-2.73244 59.2677 2.97004 55.444 0.1188 54.3686C-1.81454e-06 54.3686 0 54.2491 0 54.1296L0.594008 52.3373C0.594008 52.2178 0.712806 52.2178 0.831607 52.2178C2.25723 52.6957 2.37603 51.6203 2.85123 50.3059C3.44524 48.3941 4.98966 47.7966 6.77168 48.3941C7.12809 48.5136 7.48449 48.6331 7.36569 48.872C6.77168 50.6644 6.89048 50.5449 6.17768 50.3059C4.39565 49.7085 4.87086 54.4881 3.20764 54.3686Z" fill="#AAB2C5"/>
<path d="M156.58 54.728C156.461 54.728 156.461 54.8475 156.58 54.728C156.818 54.967 156.937 55.2059 156.937 55.5644C155.749 59.0296 155.392 59.1491 156.937 59.7466C157.055 59.7466 157.174 59.9855 157.055 60.105C156.699 61.061 156.58 61.7779 156.224 61.6584C150.64 59.6271 156.343 55.8034 153.491 54.728C153.373 54.728 153.373 54.6085 153.373 54.489L153.967 52.6966C153.967 52.5772 154.085 52.5772 154.204 52.5772C155.63 53.0551 155.749 51.9797 156.224 50.6653C156.818 48.7535 158.362 48.156 160.144 48.7535C160.501 48.873 160.857 48.9924 160.738 49.2314C160.144 51.0238 160.263 50.9043 159.55 50.6653C157.649 50.1873 158.243 54.8475 156.58 54.728Z" fill="#AAB2C5"/>
<path d="M87.2003 3.10675C87.0815 2.98726 87.0815 2.98726 87.2003 3.10675C86.9627 3.34573 86.7251 3.58471 86.4875 3.58471C82.9234 2.98726 82.6858 2.62879 82.3294 4.18216C82.3294 4.30165 82.2106 4.42114 81.973 4.42114C80.9038 4.18216 80.3098 4.30165 80.3098 3.82369C81.379 -2.15083 86.1311 2.98726 86.6063 0.11949C86.6063 -6.85509e-07 86.7251 0 86.8439 0L88.6259 0.35847C88.7447 0.35847 88.7447 0.477961 88.7447 0.597451C88.5071 2.03133 89.4575 2.03133 91.002 2.27031C92.9028 2.62879 93.8532 3.94318 93.4968 5.85502C93.378 6.21349 93.378 6.57196 93.1404 6.57196C91.3584 6.21349 91.3584 6.45247 91.596 5.61604C91.8336 3.46522 87.2003 4.77961 87.2003 3.10675Z" fill="#AAB2C5"/>
<path d="M50.9028 11.3292C50.0712 12.1656 49.9524 13.5995 50.784 14.4359C51.2592 15.0334 52.0908 15.2723 52.9224 15.0334C53.2788 15.5113 53.2788 16.1088 53.0412 16.5867L51.7344 18.4986C51.6156 18.6181 51.4968 18.857 51.4968 18.9765L50.19 17.5427C50.5464 16.3477 49.9524 15.1528 48.7644 14.7944C47.5763 14.4359 46.3883 15.0334 46.0319 16.2283C45.6755 17.4232 46.2695 18.6181 47.4575 18.9765C47.8139 19.096 48.2892 19.096 48.6456 18.9765L52.0908 22.6807C51.7344 23.8756 52.3284 25.0705 53.5164 25.429C54.7044 25.7875 55.8925 25.19 56.2489 23.9951C56.2489 23.8756 56.2489 23.8756 56.3677 23.7561C56.3677 23.5172 56.3677 23.2782 56.3677 23.1587C56.2489 21.9638 55.1796 21.0079 53.8728 21.2468C53.754 21.2468 53.754 21.2468 53.6352 21.2468C53.2788 20.7689 53.16 20.1714 53.5164 19.6935L54.8232 17.7816C55.6548 16.4672 55.536 14.7944 54.5856 13.5995C54.5856 13.48 54.5856 13.3605 54.7044 13.3605C54.7044 13.1215 54.7044 12.8825 54.7044 12.763C54.5856 11.5681 53.5164 10.7317 52.3284 10.8512C51.6156 10.8512 51.2592 10.9707 50.9028 11.3292ZM47.5763 16.3477C47.9327 16.1088 48.2892 16.1088 48.6456 16.3477C48.8832 16.7062 48.8832 17.0647 48.6456 17.4232C48.2892 17.6621 47.9327 17.6621 47.5763 17.4232C47.2199 17.1842 47.2199 16.7062 47.5763 16.3477ZM54.7044 23.0392C54.8232 23.1587 54.8232 23.2782 54.8232 23.3977C54.8232 23.7561 54.4668 24.1146 53.9916 24.1146C53.6352 24.1146 53.2788 23.7561 53.2788 23.2782C53.2788 23.1587 53.3976 22.9197 53.3976 22.8002C53.5164 22.5612 53.754 22.5612 53.9916 22.5612C54.348 22.6807 54.5856 22.8002 54.7044 23.0392ZM51.7344 12.4046C51.972 12.0461 52.4472 12.0461 52.8036 12.2851C52.9224 12.2851 52.9224 12.4046 52.9224 12.5241C52.9224 12.6435 52.9224 12.6435 53.0412 12.763C53.0412 12.8825 53.0412 12.8825 53.0412 13.002C53.0412 13.1215 53.0412 13.1215 53.0412 13.1215C52.9224 13.241 52.8036 13.3605 52.6848 13.48C52.3284 13.719 51.8532 13.48 51.7344 13.1215C51.6156 13.002 51.6156 12.6435 51.7344 12.4046Z" fill="#D6DCE8"/>
<path d="M98.6079 21.8219L96.8259 22.7779C95.0439 20.9855 92.3114 20.9855 90.5294 22.7779C89.579 23.7338 89.1038 25.1677 89.3414 26.6015L87.4406 27.438C87.0842 27.5575 86.9654 28.0354 87.203 28.2744L87.9158 29.7083C88.0346 30.0668 88.5098 30.1863 88.7474 29.9473L90.5294 28.9914C92.3114 30.7837 95.0439 30.7837 96.8259 28.9914C97.7763 28.0354 98.2515 26.6015 98.0139 25.1677L99.7959 24.2117C100.152 24.0923 100.271 23.6143 100.034 23.3753L99.3207 21.9414C99.3207 21.8219 98.8455 21.7024 98.6079 21.8219ZM94.6875 27.9159C93.6182 28.5134 92.3114 28.0354 91.7174 26.96C91.1234 25.8846 91.5986 24.5702 92.6678 23.9728C93.737 23.3753 95.0439 23.8533 95.6379 24.9287C96.1131 26.0041 95.7567 27.3185 94.6875 27.9159Z" fill="#D6DCE8"/>
<path d="M16.0383 96.7713L14.1375 93.306C13.4247 91.9916 11.8802 91.5137 10.5734 92.2306L10.217 92.3501L9.86061 91.7527C9.74181 91.5137 9.50421 91.5137 9.2666 91.6332C9.1478 91.6332 9.14781 91.7527 9.029 91.8722L8.07859 94.262C7.95979 94.5009 8.07859 94.7399 8.3162 94.8594C8.3162 94.8594 8.31619 94.8594 8.435 94.8594L10.9298 95.3374C11.1674 95.3374 11.405 95.2179 11.405 94.9789C11.405 94.8594 11.405 94.7399 11.405 94.7399L11.0486 94.1425L11.405 93.9035C11.7614 93.6645 12.3554 93.784 12.4742 94.262L14.3751 97.7272C14.0187 98.3246 14.0187 99.0416 14.3751 99.639C14.8503 100.595 15.9195 100.834 16.8699 100.356C17.2263 100.117 17.4639 99.878 17.7015 99.5195C17.8203 99.4 17.8203 99.1611 17.8203 99.0416C17.9391 97.9662 17.2263 97.0102 16.1571 96.8907C16.1571 96.7713 16.0383 96.7713 16.0383 96.7713ZM15.8007 99.1611C15.6819 99.1611 15.6819 99.1611 15.8007 99.1611C15.4443 98.9221 15.3255 98.5636 15.5631 98.2051C15.6819 97.9662 15.9195 97.8467 16.1571 97.8467C16.2759 97.8467 16.5135 97.9662 16.6323 98.0856C16.8699 98.3246 16.8699 98.6831 16.6323 98.9221C16.2759 99.2806 16.0383 99.2806 15.8007 99.1611Z" fill="#D6DCE8"/>
<path d="M5.58386 93.6672C4.75225 94.1452 4.39584 95.3401 4.87105 96.1765C5.22745 96.7739 5.82146 97.1324 6.53427 97.1324L9.86071 103.107C10.0983 103.585 10.5735 103.704 11.0487 103.465C11.5239 103.226 11.6427 102.748 11.4051 102.27L8.07869 96.296C8.43509 95.6985 8.43509 94.9816 8.07869 94.3841C7.60348 93.5477 6.41547 93.1892 5.58386 93.6672ZM6.77187 95.818C6.41547 95.9375 6.05907 95.9375 5.94026 95.579C5.82146 95.2206 5.82146 94.8621 6.17786 94.7426C6.53427 94.6231 6.89068 94.6231 7.00948 94.9816C7.12828 95.3401 7.00947 95.6985 6.77187 95.818Z" fill="#D6DCE8"/>
<path d="M147.251 77.6438L147.37 77.4048C147.726 76.6878 147.726 75.9709 147.37 75.254L146.301 72.9836C146.182 72.8641 146.182 72.6252 146.301 72.5057L146.657 71.6692L147.251 72.0277C147.489 72.1472 147.726 72.0277 147.845 71.7887C147.845 71.6692 147.845 71.5498 147.845 71.5498L147.37 68.921C147.37 68.682 147.132 68.5625 146.895 68.5625H146.776L144.4 69.6379C144.162 69.7574 144.043 69.9964 144.162 70.2354C144.162 70.3549 144.281 70.3549 144.4 70.4743L144.994 70.8328L144.637 71.6692C144.519 71.7887 144.4 71.9082 144.281 71.9082L141.786 72.2667C141.073 72.3862 140.361 72.8641 140.123 73.4616L140.004 73.7006C138.935 73.7006 138.103 74.537 138.103 75.6124C138.103 76.6878 138.935 77.5243 140.004 77.5243C141.073 77.5243 141.905 76.6878 141.905 75.6124C141.905 75.254 141.786 74.8955 141.549 74.6565L141.667 74.4175C141.786 74.298 141.905 74.1785 142.024 74.1785L144.162 73.8201C144.4 73.8201 144.637 73.9396 144.756 74.1785L145.707 76.2099C145.825 76.3294 145.825 76.5683 145.707 76.6878L145.588 76.9268C144.519 76.9268 143.687 77.8827 143.806 78.8387C143.806 79.9141 144.756 80.7505 145.707 80.631C146.776 80.631 147.607 79.6751 147.489 78.7192C147.607 78.3607 147.489 78.0022 147.251 77.6438ZM139.766 76.3294C139.41 76.2099 139.291 75.7319 139.529 75.4929C139.648 75.1345 140.123 75.015 140.361 75.254C140.717 75.3734 140.836 75.8514 140.598 76.0904C140.479 76.3294 140.004 76.4489 139.766 76.3294ZM145.35 79.3166C144.994 79.1971 144.875 78.7192 145.113 78.4802C145.231 78.1217 145.707 78.0022 145.944 78.2412C146.182 78.4802 146.419 78.8387 146.182 79.0776C146.063 79.3166 145.707 79.4361 145.35 79.3166Z" fill="#D6DCE8"/>
<path d="M142.586 110.997C140.182 123.006 128.521 130.849 116.739 128.275C104.958 125.824 97.2635 113.937 99.7881 101.928C102.193 89.9185 113.854 82.0761 125.635 84.6495C129.843 85.5073 133.69 87.5906 136.696 90.7768C141.865 96.0463 144.149 103.644 142.586 110.997Z" fill="#D6DCE8" stroke="#AAB2C5" stroke-width="2" stroke-miterlimit="10" stroke-linejoin="round"/>
<path d="M128.002 103.321H124.142V99.4611C124.142 97.9756 122.976 96.625 121.306 96.625C119.82 96.625 118.47 97.7907 118.47 99.4611V103.321H114.61C113.124 103.321 111.773 104.487 111.773 106.157C111.773 106.937 112.05 107.659 112.579 108.188C113.108 108.716 113.83 108.993 114.61 108.993H118.47V112.854C118.47 114.339 119.635 115.69 121.306 115.69C122.791 115.69 124.142 114.524 124.142 112.854V108.993H128.002C129.488 108.993 130.838 107.828 130.838 106.157C130.838 104.487 129.488 103.321 128.002 103.321Z" fill="white" stroke="#AAB2C5" stroke-width="2"/>
<path d="M69.3171 123.291C68.6043 123.41 68.0103 123.888 67.7727 124.605C65.8719 124.964 64.3274 123.53 63.971 122.813C64.6838 121.976 64.565 120.781 63.7334 120.065C62.9018 119.348 61.7138 119.467 61.001 120.303C60.2882 121.14 60.407 122.335 61.2386 123.052C61.4762 123.171 61.7138 123.41 61.9514 123.41L62.783 127.831C61.9514 128.548 61.8326 129.743 62.5454 130.58C63.2582 131.416 64.4462 131.536 65.2779 130.819C65.3967 130.819 65.3967 130.699 65.5155 130.699C65.6343 130.58 65.7531 130.46 65.8719 130.221C66.3471 129.265 65.9907 128.07 64.9215 127.592C64.8027 127.592 64.8026 127.473 64.6838 127.473L64.3274 125.8C65.3967 126.517 66.7035 126.756 68.0103 126.636H68.1291C68.8419 127.473 70.0299 127.592 70.8615 126.875C70.9803 126.875 70.9803 126.756 70.9803 126.756C71.0991 126.636 71.2179 126.517 71.3367 126.278C71.8119 125.322 71.4555 124.127 70.5051 123.649C70.1487 123.291 69.6735 123.171 69.3171 123.291ZM62.4266 120.781C62.783 120.662 63.1394 120.901 63.2582 121.379C63.377 121.737 63.1394 122.096 62.6642 122.215C62.3078 122.335 61.9514 122.096 61.8326 121.618C61.8326 121.259 62.0702 120.901 62.4266 120.781ZM64.3274 129.863C64.0898 130.102 63.6146 129.982 63.377 129.743C63.1394 129.504 63.2582 129.026 63.4958 128.787C63.4958 128.787 63.6146 128.668 63.7334 128.668C63.8522 128.548 64.0898 128.668 64.2086 128.668C64.565 128.907 64.6838 129.265 64.4462 129.624C64.565 129.743 64.4462 129.743 64.3274 129.863ZM69.6735 125.92C69.3171 125.92 69.0795 125.561 69.0795 125.203C69.0795 124.964 69.3171 124.725 69.5547 124.605C69.6735 124.605 69.9111 124.605 70.0299 124.605C70.3863 124.725 70.5051 125.203 70.3863 125.561C70.1487 125.8 69.9111 125.92 69.6735 125.92Z" fill="#D6DCE8"/>
</svg>
