<svg width="335" height="273" viewBox="0 0 335 273" fill="none" xmlns="http://www.w3.org/2000/svg">
<path d="M323.891 210.301C329.957 210.301 334.875 205.383 334.875 199.317C334.875 193.251 329.957 188.333 323.891 188.333C317.824 188.333 312.907 193.251 312.907 199.317C312.907 205.383 317.824 210.301 323.891 210.301Z" fill="#EAEEF9"/>
<path d="M302.797 240.947C306.94 240.947 310.298 237.588 310.298 233.446C310.298 229.303 306.94 225.944 302.797 225.944C298.654 225.944 295.296 229.303 295.296 233.446C295.296 237.588 298.654 240.947 302.797 240.947Z" fill="#F1F3F9"/>
<path d="M59.7412 57.5981C63.884 57.5981 67.2424 54.2397 67.2424 50.0969C67.2424 45.9541 63.884 42.5957 59.7412 42.5957C55.5984 42.5957 52.24 45.9541 52.24 50.0969C52.24 54.2397 55.5984 57.5981 59.7412 57.5981Z" fill="#EAEEF9"/>
<path d="M13.9308 202.264C21.6245 202.264 27.8616 196.027 27.8616 188.333C27.8616 180.639 21.6245 174.402 13.9308 174.402C6.23702 174.402 0 180.639 0 188.333C0 196.027 6.23702 202.264 13.9308 202.264Z" fill="#EAEEF9"/>
<path d="M183.109 272.186C258.121 272.186 318.934 211.373 318.934 136.093C318.934 60.8132 258.121 0 183.109 0C108.097 0 47.2839 60.8132 47.2839 136.093C47.2839 211.373 108.097 272.186 183.109 272.186Z" fill="#EAEEF9"/>
<path d="M267.762 17.6582C271.836 17.6582 275.283 20.7767 275.283 25.1427V245.934C275.283 249.989 272.149 253.419 267.762 253.419H104.482C100.408 253.419 96.9607 250.3 96.9607 245.934V25.1427C96.9607 21.0886 100.095 17.6582 104.482 17.6582H267.762Z" fill="#CED7E2"/>
<path d="M275.283 40.7355V245.623C275.283 249.677 272.149 253.107 267.762 253.107H118.585L105.422 240.009L253.659 36.9932L266.508 32.3154L275.283 40.7355Z" fill="#BCC4CF"/>
<path d="M267.135 34.8103C267.135 33.5628 266.195 32.3154 264.628 32.3154H107.929C106.676 32.3154 105.422 33.251 105.422 34.8103V237.515C105.422 238.762 106.362 240.009 107.929 240.009H264.314C265.568 240.009 266.821 239.074 266.821 237.515L267.135 34.8103Z" fill="#D9DFEE"/>
<path d="M267.135 34.8093C267.135 33.5619 266.194 32.3145 264.627 32.3145H107.929C106.676 32.3145 105.422 33.25 105.422 34.8093C107.302 115.579 107.929 206.952 99.1541 230.653L249.271 228.47C258.36 187.305 265.254 113.396 267.135 34.8093Z" fill="#EFF3FB"/>
<g filter="url(#filter0_d_166_7042)">
<path d="M266.821 32.627C266.821 32.627 266.507 44.7892 262.746 122.441C262.746 123.064 262.746 123.376 262.746 124C258.045 200.092 190.352 215.996 182.203 216.932C178.443 217.244 171.235 217.868 158.385 217.868C142.402 218.491 117.957 218.803 79.7228 219.115C78.4692 219.115 77.529 217.868 78.1558 216.62C104.481 163.917 104.795 32.9388 104.795 32.9388L266.821 32.627Z" fill="white"/>
</g>
<path d="M262.434 123.688C258.046 199.781 190.039 215.685 181.891 216.621C178.13 216.932 170.922 217.556 158.073 217.556C191.92 201.964 210.097 173.897 209.783 152.067C226.08 153.315 254.286 152.067 262.434 123.688Z" fill="#EAEEF9"/>
<path d="M224.2 18.2817C224.2 17.9699 224.2 17.9699 224.2 18.2817L222.633 16.7225C222.633 16.7225 221.693 17.0343 221.379 17.658H196.934C196.934 17.0343 196.934 16.7225 196.934 16.0987C196.934 11.1091 192.547 6.74316 187.532 6.74316C182.518 6.74316 178.13 11.1091 178.13 16.0987C178.13 16.7225 178.13 17.0343 178.444 17.3462H153.059C151.805 17.3462 150.552 18.2817 150.552 20.1528V28.261C150.552 34.4981 154.939 38.2403 160.894 38.2403H212.917C219.185 38.2403 224.513 34.4981 224.513 28.261V19.841C224.826 19.2173 224.513 18.5936 224.2 18.2817Z" fill="#636F84"/>
<path d="M223.26 18.2817V26.3899C223.26 27.0136 223.26 27.3255 223.26 27.9492C222.319 33.2507 217.932 37.6166 212.291 37.6166H159.953C154.312 37.6166 149.925 33.2507 148.985 27.9492C148.985 27.3255 148.985 27.0136 148.985 26.3899V18.2817C148.985 17.0343 149.925 15.4751 151.492 15.4751H177.19C177.19 14.8514 177.19 14.5395 177.19 14.2277C177.19 9.23801 181.578 4.87207 186.592 4.87207C191.607 4.87207 195.994 9.23801 195.994 14.2277C195.994 14.8514 195.994 15.1632 195.994 15.4751H221.693C222.319 15.7869 223.26 16.7225 223.26 18.2817Z" fill="url(#paint0_linear_166_7042)"/>
<path d="M185.965 18.5942C188.472 18.5942 190.353 16.7231 190.353 14.2282C190.353 11.7334 188.472 9.8623 185.965 9.8623C183.458 9.8623 181.578 11.7334 181.578 14.2282C181.578 16.7231 183.771 18.5942 185.965 18.5942Z" fill="#EAEEF9"/>
<path d="M222.946 27.9492C222.006 33.2507 217.618 37.6167 211.977 37.6167H159.953C154.312 37.6167 149.925 33.2507 148.985 27.9492H222.946Z" fill="#9AA1B2"/>
<path d="M220.538 167.345H148.177C147.679 167.345 147.182 166.589 147.182 165.329C147.182 164.321 147.679 163.312 148.177 163.312H220.787C221.284 163.312 221.781 164.069 221.781 165.329C221.781 166.337 221.284 167.345 220.538 167.345Z" fill="#AAB2C5"/>
<path d="M182.519 179.442H148.137C147.66 179.442 147.182 178.685 147.182 177.425C147.182 176.417 147.66 175.409 148.137 175.409H182.519C182.996 175.409 183.474 176.165 183.474 177.425C183.474 178.433 182.996 179.442 182.519 179.442Z" fill="#AAB2C5"/>
<path d="M232.856 76.6164H158.284C157.773 76.6164 157.263 75.8603 157.263 74.6002C157.263 73.5921 157.773 72.584 158.284 72.584H232.856C233.367 72.584 233.878 73.3401 233.878 74.6002C233.878 75.8603 233.367 76.6164 232.856 76.6164Z" fill="#AAB2C5"/>
<path d="M230.887 86.6974H202.595C202.107 86.6974 201.619 85.9414 201.619 84.6812C201.619 83.6731 202.107 82.665 202.595 82.665H230.887C231.374 82.665 231.862 83.4211 231.862 84.6812C231.862 85.9414 231.374 86.6974 230.887 86.6974Z" fill="#AAB2C5"/>
<path d="M194.562 86.6974H158.271C157.767 86.6974 157.263 85.9414 157.263 84.6812C157.263 83.6731 157.767 82.665 158.271 82.665H194.562C195.066 82.665 195.57 83.4211 195.57 84.6812C195.57 85.9414 195.066 86.6974 194.562 86.6974Z" fill="#AAB2C5"/>
<path d="M128.868 88.7131C128.335 88.7131 127.803 88.4511 127.271 87.927L119.554 80.5901C118.756 79.804 118.756 78.2318 119.554 77.4457C120.353 76.6596 121.949 76.6596 122.747 77.4457L128.868 83.4725L141.374 71.157C142.172 70.3709 143.769 70.3709 144.567 71.157C145.366 71.9431 145.366 73.5152 144.567 74.3013L130.464 88.1891C129.932 88.4511 129.4 88.7131 128.868 88.7131Z" fill="#AAB2C5"/>
<path d="M228.851 120.972H156.241C155.744 120.972 155.247 120.216 155.247 118.956C155.247 117.948 155.744 116.939 156.241 116.939H228.851C229.348 116.939 229.846 117.696 229.846 118.956C229.846 119.964 229.348 120.972 228.851 120.972Z" fill="#AAB2C5"/>
<path d="M190.523 133.069H156.2C155.723 133.069 155.247 132.313 155.247 131.053C155.247 130.045 155.723 129.037 156.2 129.037H190.523C190.999 129.037 191.476 129.793 191.476 131.053C191.714 132.061 191.238 133.069 190.523 133.069Z" fill="#AAB2C5"/>
<path d="M125.843 133.069C125.352 133.069 124.861 132.807 124.369 132.282L117.492 124.946C116.755 124.159 116.755 122.587 117.492 121.801C118.229 121.015 119.703 121.015 120.439 121.801L126.089 127.828L137.633 115.512C138.37 114.726 139.844 114.726 140.581 115.512C141.318 116.299 141.318 117.871 140.581 118.657L127.317 132.282C127.071 132.807 126.58 133.069 125.843 133.069Z" fill="#AAB2C5"/>
<path d="M117.778 179.442C117.287 179.442 116.796 179.18 116.304 178.656L109.427 171.319C108.69 170.533 108.69 168.96 109.427 168.174C110.164 167.388 111.638 167.388 112.374 168.174L118.024 174.201L129.568 161.885C130.305 161.099 131.779 161.099 132.516 161.885C133.253 162.672 133.253 164.244 132.516 165.03L119.252 178.656C119.006 179.18 118.515 179.442 117.778 179.442Z" fill="#AAB2C5"/>
<path d="M305.82 232.551C304.786 236.95 303.233 241.607 301.422 245.488C296.506 255.062 288.743 262.565 279.17 267.481C269.338 272.398 257.694 274.468 246.051 271.88C218.624 266.188 201.029 239.278 206.721 211.851C212.414 184.424 239.064 166.571 266.491 172.522C276.324 174.592 284.862 179.508 292.107 186.236C304.268 198.397 309.443 215.991 305.82 232.551Z" fill="url(#paint1_linear_166_7042)"/>
<path d="M272.442 217.802H260.799V206.158C260.799 203.83 258.987 201.76 256.4 201.76C254.071 201.76 252.001 203.571 252.001 206.158V217.802H240.358C238.029 217.802 235.959 219.613 235.959 222.201C235.959 224.788 237.77 226.599 240.358 226.599H252.001V238.243C252.001 240.571 253.813 242.641 256.4 242.641C258.729 242.641 260.799 240.83 260.799 238.243V226.599H272.442C274.771 226.599 276.841 224.788 276.841 222.201C276.841 219.613 274.771 217.802 272.442 217.802Z" fill="white"/>
<defs>
<filter id="filter0_d_166_7042" x="55.9563" y="21.627" width="232.864" height="230.488" filterUnits="userSpaceOnUse" color-interpolation-filters="sRGB">
<feFlood flood-opacity="0" result="BackgroundImageFix"/>
<feColorMatrix in="SourceAlpha" type="matrix" values="0 0 0 0 0 0 0 0 0 0 0 0 0 0 0 0 0 0 127 0" result="hardAlpha"/>
<feOffset dy="11"/>
<feGaussianBlur stdDeviation="11"/>
<feColorMatrix type="matrix" values="0 0 0 0 0.397708 0 0 0 0 0.47749 0 0 0 0 0.575 0 0 0 0.27 0"/>
<feBlend mode="normal" in2="BackgroundImageFix" result="effect1_dropShadow_166_7042"/>
<feBlend mode="normal" in="SourceGraphic" in2="effect1_dropShadow_166_7042" result="shape"/>
</filter>
<linearGradient id="paint0_linear_166_7042" x1="149.074" y1="21.2484" x2="223.331" y2="21.2484" gradientUnits="userSpaceOnUse">
<stop stop-color="#B0BACC"/>
<stop offset="1" stop-color="#969EAE"/>
</linearGradient>
<linearGradient id="paint1_linear_166_7042" x1="205.605" y1="222.2" x2="306.974" y2="222.2" gradientUnits="userSpaceOnUse">
<stop stop-color="#B0BACC"/>
<stop offset="1" stop-color="#969EAE"/>
</linearGradient>
</defs>
</svg>
