<svg width="58" height="55" viewBox="0 0 58 55" fill="none" xmlns="http://www.w3.org/2000/svg">
<path d="M55.428 31.874L56.3979 29.794L54.297 28.8688L47.5082 25.8783L53.7476 21.8747L55.7374 20.5974L54.3587 18.676L45.8069 6.75268L44.4658 4.88182L42.6284 6.27156L36.7239 10.7368L36.1925 3.22582L36.031 0.943651L33.752 1.14791L19.4767 2.42673L17.191 2.63117L17.4442 4.91151L18.2743 12.3487L11.5205 8.92184L9.44968 7.87196L1.40939 25.1145L3.54474 26.0259L10.3525 28.9262L4.06946 33.0234L2.11312 34.2998L3.46589 36.2059L11.8908 48.0683L13.2108 49.9277L15.0487 48.5795L21.1703 44.0915L21.5087 51.5489L21.6153 53.8814L23.9427 53.6832L38.3313 52.4589L40.6193 52.2638L40.374 49.9806L39.5835 42.6427L46.3185 45.9717L48.3791 46.9903L55.428 31.874Z" fill="white" stroke="#051A2F" stroke-width="1.56923"/>
</svg>
