<svg width="36" height="36" viewBox="0 0 36 36" fill="none" xmlns="http://www.w3.org/2000/svg">
<g clip-path="url(#clip0_357_11991)">
<g clip-path="url(#clip1_357_11991)">
<g clip-path="url(#clip2_357_11991)">
<path d="M25.0188 9.77133H25.013C24.9739 9.76492 24.937 9.74919 24.9053 9.72548C24.8737 9.70177 24.8482 9.67077 24.831 9.63512L24.8291 9.63025L21.7467 3.79436V3.79242C21.3904 3.1038 20.8509 2.52688 20.1878 2.12517C19.5246 1.72346 18.7634 1.51255 17.9881 1.51566C16.3837 1.51566 14.9719 2.38647 14.2276 3.78852L14.2256 3.79242L11.1471 9.6322L11.1462 9.63609C11.1287 9.67198 11.1027 9.70306 11.0705 9.72663C11.0383 9.7502 11.0008 9.76554 10.9613 9.77133L10.9525 9.77231L4.49298 10.9204V10.9214C3.7291 11.0537 3.01543 11.3938 2.43207 11.9044C1.84871 12.415 1.4172 13.0764 1.18487 13.816C0.943199 14.5523 0.907184 15.3407 1.08071 16.096C1.25423 16.8513 1.63071 17.5449 2.16952 18.1019L6.72984 22.8588L6.73276 22.8617C6.78919 22.9201 6.82033 23.0018 6.80671 23.102L5.89017 29.6501V29.654C5.78096 30.4188 5.8814 31.1988 6.18075 31.911C6.48011 32.6231 6.96716 33.2407 7.58995 33.6977L7.59676 33.7026L7.6026 33.7065C8.32551 34.2374 9.19841 34.525 10.0954 34.5277C10.7466 34.5268 11.389 34.3767 11.9732 34.0888L11.9751 34.0879L17.8665 31.1865L17.8684 31.1855C17.9041 31.1669 17.9437 31.1571 17.984 31.1567C18.0242 31.1564 18.064 31.1656 18.1 31.1836L23.9962 34.0879L24.0021 34.0908C24.6956 34.4349 25.4706 34.5808 26.2417 34.5127C27.0129 34.4445 27.7502 34.1649 28.3727 33.7045L28.3785 33.7006C29.0041 33.2448 29.4937 32.6272 29.7947 31.914C30.0957 31.2009 30.1968 30.4193 30.087 29.6531V29.6501L29.1705 23.102C29.1632 23.059 29.166 23.0148 29.1789 22.9731C29.1917 22.9313 29.2142 22.8932 29.2444 22.8617L29.2474 22.8588L33.8067 18.1019C34.3457 17.545 34.7223 16.8515 34.896 16.0961C35.0697 15.3408 35.0339 14.5524 34.7923 13.816L34.7904 13.8092C34.2961 12.3011 33.0595 11.1987 31.4784 10.9194L25.0188 9.77133Z" fill="#E9FA49" stroke="#051A2F" stroke-width="2.91892"/>
</g>
</g>
</g>
<defs>
<clipPath id="clip0_357_11991">
<rect width="36" height="36" fill="white"/>
</clipPath>
<clipPath id="clip1_357_11991">
<rect width="36" height="36" fill="white"/>
</clipPath>
<clipPath id="clip2_357_11991">
<rect width="36.973" height="36" fill="white" transform="translate(-0.486328)"/>
</clipPath>
</defs>
</svg>
