<svg width="36" height="36" viewBox="0 0 36 36" fill="none" xmlns="http://www.w3.org/2000/svg">
<g clip-path="url(#clip0_357_11921)">
<g clip-path="url(#clip1_357_11921)">
<path d="M27.7754 12.2087H23.7896V8.1813C23.7904 6.56326 23.1517 5.01047 22.0127 3.8613C21.4497 3.29292 20.7797 2.84164 20.0414 2.53349C19.3031 2.22534 18.5111 2.06643 17.7111 2.06592C16.0957 2.06592 14.5477 2.713 13.4096 3.8613C12.2708 5.01064 11.6321 6.56332 11.6327 8.1813V12.2087H7.64682C6.03144 12.2087 4.48436 12.8558 3.34528 14.0041C2.20647 15.1534 1.56782 16.7061 1.56836 18.3241C1.56836 19.9431 2.20621 21.4976 3.34528 22.645C3.90828 23.2134 4.57824 23.6647 5.31653 23.9728C6.05481 24.281 6.84681 24.4399 7.64682 24.4404H11.6327V28.4678C11.6327 30.0859 12.2696 31.6404 13.4087 32.7878C13.9717 33.3561 14.6416 33.8074 15.3799 34.1156C16.1182 34.4237 16.9102 34.5826 17.7102 34.5831C18.5104 34.5828 19.3026 34.424 20.041 34.1158C20.7795 33.8077 21.4496 33.3563 22.0127 32.7878C23.1516 31.6385 23.7902 30.0858 23.7896 28.4678V24.4404H27.7745C29.3899 24.4404 30.9379 23.7933 32.0761 22.645C33.2149 21.4957 33.8535 19.943 33.853 18.325C33.853 16.7059 33.2161 15.1515 32.077 14.0041C31.514 13.4357 30.844 12.9844 30.1057 12.6763C29.3674 12.3681 28.5755 12.2092 27.7754 12.2087Z" fill="#1CB785"/>
<path d="M3.34528 14.0041C4.48436 12.8558 6.03144 12.2087 7.64682 12.2087H11.6327V8.1813C11.6321 6.56332 12.2708 5.01064 13.4096 3.8613C14.5477 2.713 16.0957 2.06592 17.7111 2.06592C18.5111 2.06643 19.3031 2.22534 20.0414 2.53349C20.7797 2.84164 21.4497 3.29292 22.0127 3.8613C23.1517 5.01047 23.7904 6.56326 23.7896 8.1813V12.2087H27.7754C28.5755 12.2092 29.3674 12.3681 30.1057 12.6763C30.844 12.9844 31.514 13.4357 32.077 14.0041C33.2161 15.1515 33.853 16.7059 33.853 18.325C33.8535 19.943 33.2149 21.4957 32.0761 22.645C30.9379 23.7933 29.3899 24.4404 27.7745 24.4404H23.7896V28.4678C23.7902 30.0858 23.1516 31.6385 22.0127 32.7878C21.4496 33.3563 20.7795 33.8077 20.041 34.1158C19.3026 34.424 18.5104 34.5828 17.7102 34.5831C16.9102 34.5826 16.1182 34.4237 15.3799 34.1156C14.6416 33.8074 13.9717 33.3561 13.4087 32.7878C12.2696 31.6404 11.6327 30.0859 11.6327 28.4678V24.4404H7.64682C6.84681 24.4399 6.05481 24.281 5.31653 23.9728C4.57824 23.6647 3.90828 23.2134 3.34528 22.645C2.20621 21.4976 1.56836 19.9431 1.56836 18.3241C1.56782 16.7061 2.20647 15.1534 3.34528 14.0041ZM3.34528 14.0041L4.32836 14.9788" stroke="#051A2F" stroke-width="2.76923"/>
</g>
</g>
<defs>
<clipPath id="clip0_357_11921">
<rect width="36" height="36" fill="white"/>
</clipPath>
<clipPath id="clip1_357_11921">
<rect width="36" height="36" fill="white"/>
</clipPath>
</defs>
</svg>
