<svg width="100" height="26" viewBox="0 0 100 26" fill="none" xmlns="http://www.w3.org/2000/svg">
    <path d="M26.6825 9.50586H36.5775V11.352H32.6868V21.7302H30.5473V11.352H26.6738V9.50586H26.6825ZM36.1548 12.879H37.9837V14.5871H38.0182C38.0786 14.3455 38.1907 14.1126 38.3546 13.8883C38.5185 13.664 38.717 13.4483 38.9499 13.2672C39.1828 13.0774 39.4416 12.9307 39.7263 12.81C40.011 12.6978 40.3043 12.6374 40.5976 12.6374C40.8219 12.6374 40.9858 12.646 41.0721 12.6547C41.1584 12.6633 41.2446 12.6806 41.3395 12.6892V14.5698C41.2015 14.544 41.0635 14.5267 40.9168 14.5095C40.7702 14.4922 40.6321 14.4836 40.4941 14.4836C40.1663 14.4836 39.8557 14.5526 39.5624 14.682C39.2691 14.8114 39.0189 15.0098 38.8032 15.26C38.5876 15.5188 38.415 15.8294 38.2856 16.209C38.1562 16.5885 38.0958 17.0199 38.0958 17.5116V21.7215H36.1461V12.879H36.1548ZM50.3029 21.7302H48.3877V20.4965H48.3532C48.1116 20.9451 47.7579 21.2988 47.2835 21.5662C46.809 21.8337 46.3259 21.9717 45.8341 21.9717C44.6695 21.9717 43.8241 21.687 43.3065 21.109C42.7889 20.531 42.53 19.6597 42.53 18.4951V12.879H44.4797V18.3053C44.4797 19.0817 44.6264 19.6338 44.9283 19.953C45.2216 20.2722 45.6444 20.4361 46.1792 20.4361C46.5933 20.4361 46.9298 20.3757 47.2058 20.2463C47.4819 20.1169 47.7062 19.953 47.8701 19.7373C48.0426 19.5303 48.1634 19.2715 48.241 18.9782C48.3187 18.6849 48.3532 18.3657 48.3532 18.0206V12.8876H50.3029V21.7302ZM53.6242 18.8919C53.6846 19.4613 53.9003 19.8581 54.2712 20.091C54.6508 20.3153 55.0994 20.4361 55.6257 20.4361C55.8068 20.4361 56.0139 20.4189 56.2468 20.393C56.4797 20.3671 56.704 20.3067 56.9024 20.2291C57.1095 20.1514 57.2734 20.0307 57.4114 19.8754C57.5408 19.7201 57.6012 19.5217 57.5926 19.2715C57.584 19.0213 57.4891 18.8143 57.3165 18.659C57.144 18.4951 56.9283 18.3743 56.6609 18.2708C56.3935 18.1759 56.0915 18.0896 55.7464 18.0206C55.4014 17.9516 55.0563 17.8739 54.7026 17.7963C54.3403 17.7187 53.9866 17.6151 53.6501 17.503C53.3137 17.3908 53.0117 17.2355 52.7443 17.0371C52.4768 16.8473 52.2612 16.5972 52.1059 16.2952C51.942 15.9933 51.8643 15.6223 51.8643 15.1737C51.8643 14.6906 51.9851 14.2938 52.218 13.966C52.451 13.6381 52.7529 13.3793 53.1066 13.1809C53.4689 12.9825 53.8658 12.8445 54.3057 12.7582C54.7457 12.6806 55.1684 12.6374 55.5653 12.6374C56.0225 12.6374 56.4625 12.6892 56.8766 12.7841C57.2907 12.879 57.6702 13.0343 58.0067 13.2586C58.3431 13.4742 58.6192 13.7589 58.8435 14.104C59.0678 14.4491 59.2058 14.8718 59.2662 15.3635H57.2303C57.1354 14.8977 56.9283 14.5785 56.5919 14.4232C56.2554 14.2593 55.8672 14.1816 55.4359 14.1816C55.2978 14.1816 55.1339 14.1903 54.9441 14.2161C54.7543 14.242 54.5818 14.2852 54.4093 14.3455C54.2454 14.4059 54.1073 14.5008 53.9866 14.6216C53.8744 14.7424 53.814 14.8977 53.814 15.0961C53.814 15.3376 53.9003 15.5274 54.0642 15.6741C54.2281 15.8207 54.4438 15.9415 54.7112 16.045C54.9786 16.1399 55.2806 16.2262 55.6257 16.2952C55.9707 16.3642 56.3244 16.4419 56.6868 16.5195C57.0405 16.5972 57.3855 16.7007 57.7306 16.8128C58.0757 16.925 58.3776 17.0803 58.6451 17.2787C58.9125 17.4771 59.1282 17.7187 59.2921 18.012C59.456 18.3053 59.5423 18.6762 59.5423 19.1076C59.5423 19.6338 59.4215 20.0738 59.1799 20.4448C58.9384 20.8071 58.6278 21.109 58.2482 21.3333C57.8687 21.5576 57.4373 21.7302 56.9715 21.8337C56.5056 21.9372 56.0398 21.989 55.5825 21.989C55.0218 21.989 54.5042 21.9286 54.0297 21.7992C53.5552 21.6698 53.1411 21.48 52.796 21.2298C52.451 20.971 52.1749 20.6518 51.9765 20.2722C51.7781 19.8926 51.6745 19.4354 51.6573 18.9092H53.6242V18.8919ZM60.0599 12.879H61.5351V10.2219H63.4848V12.879H65.2446V14.3369H63.4848V19.0644C63.4848 19.2715 63.4934 19.444 63.5106 19.5993C63.5279 19.746 63.571 19.8754 63.6314 19.9789C63.6918 20.0824 63.7867 20.1601 63.9161 20.2118C64.0455 20.2636 64.2094 20.2895 64.4337 20.2895C64.5717 20.2895 64.7098 20.2895 64.8478 20.2808C64.9858 20.2722 65.1239 20.255 65.2619 20.2205V21.7302C65.0462 21.756 64.8305 21.7733 64.6321 21.7992C64.4251 21.8251 64.218 21.8337 64.0024 21.8337C63.4848 21.8337 63.0707 21.7819 62.7601 21.687C62.4495 21.5921 62.1994 21.4455 62.0268 21.2557C61.8456 21.0659 61.7335 20.833 61.6645 20.5483C61.6041 20.2636 61.561 19.9358 61.5523 19.5734V14.3542H60.0771V12.879H60.0599ZM66.6249 12.879H68.4711V14.0781H68.5056C68.7817 13.5605 69.1612 13.1982 69.653 12.9739C70.1447 12.7496 70.6709 12.6374 71.249 12.6374C71.9477 12.6374 72.5516 12.7582 73.0692 13.0084C73.5868 13.2499 74.0182 13.5864 74.3633 14.0177C74.7083 14.4491 74.9585 14.9494 75.1311 15.5188C75.3036 16.0882 75.3899 16.7007 75.3899 17.3477C75.3899 17.943 75.3122 18.521 75.1569 19.0731C75.0017 19.6338 74.7687 20.1256 74.4582 20.5569C74.1476 20.9882 73.7507 21.3247 73.2676 21.5835C72.7845 21.8423 72.2238 21.9717 71.5681 21.9717C71.2835 21.9717 70.9988 21.9458 70.7141 21.8941C70.4294 21.8423 70.1533 21.756 69.8945 21.6439C69.6357 21.5317 69.3855 21.3851 69.1699 21.2039C68.9456 21.0228 68.7644 20.8157 68.6091 20.5828H68.5746V24.9997H66.6249V12.879ZM73.4402 17.3132C73.4402 16.9164 73.3884 16.5281 73.2849 16.1486C73.1814 15.769 73.0261 15.4412 72.819 15.1478C72.612 14.8545 72.3532 14.6216 72.0513 14.4491C71.7407 14.2765 71.387 14.1816 70.9901 14.1816C70.1706 14.1816 69.5495 14.4663 69.1354 15.0357C68.7213 15.6051 68.5142 16.3642 68.5142 17.3132C68.5142 17.7618 68.566 18.1759 68.6781 18.5555C68.7903 18.935 68.9456 19.2629 69.1699 19.5389C69.3855 19.815 69.6444 20.0307 69.9463 20.1859C70.2482 20.3499 70.6019 20.4275 70.9988 20.4275C71.4474 20.4275 71.8183 20.3326 72.1289 20.1514C72.4395 19.9703 72.6896 19.7287 72.8881 19.444C73.0865 19.1507 73.2331 18.8229 73.3194 18.4519C73.397 18.081 73.4402 17.7014 73.4402 17.3132ZM76.8823 9.50586H78.832V11.352H76.8823V9.50586ZM76.8823 12.879H78.832V21.7302H76.8823V12.879ZM80.5746 9.50586H82.5243V21.7302H80.5746V9.50586ZM88.5027 21.9717C87.7953 21.9717 87.1656 21.8509 86.6134 21.618C86.0613 21.3851 85.5955 21.0573 85.2073 20.6518C84.8277 20.2377 84.5344 19.746 84.3359 19.1766C84.1375 18.6072 84.034 17.9775 84.034 17.2959C84.034 16.623 84.1375 16.0019 84.3359 15.4325C84.5344 14.8632 84.8277 14.3714 85.2073 13.9573C85.5868 13.5432 86.0613 13.224 86.6134 12.9911C87.1656 12.7582 87.7953 12.6374 88.5027 12.6374C89.2101 12.6374 89.8399 12.7582 90.392 12.9911C90.9441 13.224 91.41 13.5519 91.7982 13.9573C92.1778 14.3714 92.4711 14.8632 92.6695 15.4325C92.8679 16.0019 92.9715 16.623 92.9715 17.2959C92.9715 17.9775 92.8679 18.6072 92.6695 19.1766C92.4711 19.746 92.1778 20.2377 91.7982 20.6518C91.4186 21.0659 90.9441 21.3851 90.392 21.618C89.8399 21.8509 89.2101 21.9717 88.5027 21.9717ZM88.5027 20.4275C88.9341 20.4275 89.3137 20.3326 89.6329 20.1514C89.952 19.9703 90.2109 19.7287 90.4179 19.4354C90.6249 19.1421 90.7716 18.8056 90.8751 18.4347C90.97 18.0637 91.0218 17.6841 91.0218 17.2959C91.0218 16.9164 90.97 16.5454 90.8751 16.1658C90.7802 15.7862 90.6249 15.4584 90.4179 15.1651C90.2109 14.8718 89.952 14.6389 89.6329 14.4577C89.3137 14.2765 88.9341 14.1816 88.5027 14.1816C88.0714 14.1816 87.6918 14.2765 87.3726 14.4577C87.0534 14.6389 86.7946 14.8804 86.5876 15.1651C86.3805 15.4584 86.2339 15.7862 86.1303 16.1658C86.0354 16.5454 85.9837 16.9164 85.9837 17.2959C85.9837 17.6841 86.0354 18.0637 86.1303 18.4347C86.2252 18.8056 86.3805 19.1421 86.5876 19.4354C86.7946 19.7287 87.0534 19.9703 87.3726 20.1514C87.6918 20.3412 88.0714 20.4275 88.5027 20.4275ZM93.5408 12.879H95.016V10.2219H96.9657V12.879H98.7256V14.3369H96.9657V19.0644C96.9657 19.2715 96.9743 19.444 96.9916 19.5993C97.0088 19.746 97.052 19.8754 97.1124 19.9789C97.1728 20.0824 97.2676 20.1601 97.3971 20.2118C97.5265 20.2636 97.6904 20.2895 97.9147 20.2895C98.0527 20.2895 98.1907 20.2895 98.3288 20.2808C98.4668 20.2722 98.6048 20.255 98.7428 20.2205V21.7302C98.5272 21.756 98.3115 21.7733 98.1131 21.7992C97.906 21.8251 97.699 21.8337 97.4833 21.8337C96.9657 21.8337 96.5516 21.7819 96.2411 21.687C95.9305 21.5921 95.6803 21.4455 95.5078 21.2557C95.3266 21.0659 95.2145 20.833 95.1454 20.5483C95.0851 20.2636 95.0419 19.9358 95.0333 19.5734V14.3542H93.5581V12.879H93.5408Z" fill="#181C1F"/>
    <path d="M24.4047 9.50611H15.4673L12.7067 1L9.93746 9.50611L1 9.49748L8.23796 14.7599L5.46873 23.2574L12.7067 18.0036L19.936 23.2574L17.1754 14.7599L24.4047 9.50611Z" fill="#00B67A"/>
    <path d="M17.7969 16.6836L17.1758 14.7598L12.707 18.0035L17.7969 16.6836Z" fill="#005128"/>
</svg>
